<svg xmlns="http://www.w3.org/2000/svg" viewBox="0 0 559.4 113.33"><path fill="#fff" d="M148.21 3.51c-.34 1.61-.51 2.85-.51 3.74 0 1.26.37 2.56 1.11 3.91.74 1.35 2.04 3.08 3.92 5.19 3.78 4.35 6.4 7.47 7.86 9.34 1.46 1.88 2.65 3.64 3.56 5.3 1.08 1.98 1.85 3.82 2.32 5.52.47 1.7.7 3.53.7 5.47 0 2.44-.41 4.8-1.24 7.11-.82 2.3-1.98 4.33-3.46 6.07-3.93 4.64-9.96 6.96-18.08 6.96h-16.18V48.3h14.34c3.04 0 5.22-.76 6.52-2.28 1.05-1.26 1.58-2.62 1.58-4.08 0-1.69-.6-3.44-1.79-5.23-1.2-1.79-4.14-5.39-8.82-10.78-2.16-2.52-3.81-4.6-4.96-6.21-1.15-1.62-2-3.11-2.53-4.45-.91-2.26-1.37-4.33-1.37-6.2 0-1.38.18-3.23.55-5.55h16.47Zm55.71 0 18.28 58.61h-54.96l11.86-36.04h14.55L187.4 48.3h15.02L186.59 3.51h17.33Zm20.62 0h25.37c3.66 0 6.89.36 9.67 1.08 2.52.66 4.76 2.02 6.71 4.06 1.49 1.53 2.59 3.44 3.29 5.75.7 2.3 1.05 5.08 1.05 8.34v39.39h-16V23.51c0-2-.36-3.46-1.07-4.37-.88-1.09-2.66-1.63-5.36-1.63h-7.66v44.62h-16V3.51Zm91.13 0v13.82h-5.91c-3.13 0-5.73.44-7.82 1.31-2.08.87-3.89 2.27-5.43 4.21-2.31 2.9-3.45 6.29-3.45 10.16 0 3.65 1.1 6.88 3.33 9.69 1.62 2.09 3.51 3.57 5.67 4.45 2.15.89 4.95 1.32 8.39 1.32h5.22v13.65h-7.88c-5.96 0-11.07-.99-15.33-2.96s-7.81-5-10.63-9.06c-1.71-2.46-3.02-5.17-3.93-8.11-.92-2.95-1.37-5.94-1.37-8.97s.47-6.11 1.41-9.17c.94-3.05 2.28-5.82 4.02-8.31 1.76-2.55 3.86-4.72 6.29-6.52 2.42-1.81 5-3.11 7.74-3.91 3.62-1.06 7.75-1.59 12.4-1.59h7.28Zm22.75 22.57v14.51c0 2.73.33 4.58.98 5.56.51.72 1.19 1.21 2.01 1.46.83.26 2.11.39 3.86.39h10.4v14.12h-14.98c-3.1 0-5.73-.37-7.89-1.09-2.16-.73-4.02-1.88-5.57-3.45-1.98-2.01-3.27-4.26-3.87-6.78-.63-2.63-.95-5.74-.95-9.31V26.08h16.01Zm18.96-22.57v13.82h-37.57V3.51h37.57Zm51.38 0v58.61h-27.37c-3.51 0-6.49-.4-8.96-1.2-1.64-.54-3.16-1.45-4.58-2.75a14.399 14.399 0 0 1-3.38-4.59c-1.21-2.45-1.81-6.07-1.81-10.88V3.51h16v37.34c0 1.89.11 3.28.34 4.15.23.88.65 1.59 1.27 2.13.49.43 1.12.73 1.92.91.79.17 1.86.26 3.23.26h7.34V3.51h16Zm38.98 0 18.28 58.61h-54.96l11.86-36.04h14.54l-6.25 22.22h15.03L430.39 3.51h17.34Zm18.88 0h20.02c3.57 0 6.69.21 9.31.65 1.72.26 3.37.82 4.94 1.7 1.57.88 2.91 1.96 4 3.25 1.08 1.29 1.93 2.81 2.55 4.56.61 1.75.92 3.59.92 5.51 0 3.7-.94 6.82-2.83 9.34-1.04 1.41-2.24 2.5-3.64 3.27-1.39.78-3.31 1.44-5.78 1.98 2.01.44 3.55.95 4.62 1.57 1.08.62 2.02 1.51 2.82 2.69 1.46 2.12 2.19 4.98 2.19 8.59v15.51h-16v-13.8c0-2.79-.53-4.78-1.58-5.98-.65-.8-1.62-1.38-2.9-1.73-1.28-.36-2.97-.54-5.07-.54H466.6v-14h18.87c1.56 0 2.73-.11 3.53-.35.79-.23 1.4-.62 1.83-1.17.66-.81.99-1.77.99-2.88 0-1.36-.44-2.45-1.29-3.27-.84-.72-2.31-1.09-4.42-1.09H466.6V3.51Zm91.72 0v10.21c0 3.99-.26 7.41-.77 10.26-.35 2.07-1.07 4.12-2.17 6.14-1.1 2.03-2.46 3.8-4.09 5.33-4.05 3.91-9.48 5.86-16.26 5.86s-11.86-1.86-15.97-5.56c-1.7-1.55-3.13-3.33-4.25-5.34-1.13-2.01-1.88-4.11-2.25-6.29-.46-2.62-.69-5.63-.69-9.05V3.51h16v14.64c0 1.92.18 3.47.55 4.64.37 1.18.97 2.12 1.82 2.84 1.3 1.11 2.9 1.68 4.79 1.68s3.52-.53 4.78-1.59c1.66-1.4 2.5-4.1 2.5-8.08V3.51h16ZM548.26 48.3v13.82h-26.79V48.3h26.79ZM148.63 81.37l-4.32 2.56c-.67-1.17-1.29-1.97-1.84-2.42-.86-.73-1.97-1.1-3.32-1.1-1.46 0-2.67.4-3.64 1.23-.97.82-1.45 1.86-1.45 3.1 0 1.7 1.27 3.07 3.81 4.11l3.48 1.4c2.91 1.19 4.99 2.61 6.24 4.26 1.29 1.7 1.93 3.66 1.93 5.89 0 1.66-.3 3.22-.91 4.66-.6 1.44-1.49 2.7-2.64 3.77-2.04 1.89-4.54 2.83-7.48 2.83-3.59 0-6.46-1.25-8.6-3.77-.78-.91-1.38-1.85-1.78-2.83-.4-.98-.71-2.22-.93-3.73l5.3-1.15c.15 1.2.32 2.1.49 2.7.18.6.44 1.15.78 1.64.51.71 1.19 1.26 2.05 1.67.85.41 1.76.62 2.71.62 1.64 0 3.01-.55 4.09-1.66 1.08-1.11 1.63-2.49 1.63-4.16 0-1.38-.39-2.52-1.15-3.45-.77-.92-2.04-1.75-3.82-2.5l-3.35-1.43c-2.52-1.07-4.33-2.33-5.43-3.77-1.13-1.5-1.7-3.17-1.7-5 0-2.78 1.02-5.02 3.06-6.71.98-.83 2.12-1.47 3.42-1.92 1.29-.45 2.62-.68 3.98-.68 2.41 0 4.51.68 6.3 2.04.63.49 1.17 1.01 1.62 1.55.45.55.95 1.29 1.49 2.24Zm29.49.35c1.81.87 3.29 2.08 4.43 3.61.85 1.13 1.53 2.46 2.03 3.95.5 1.5.75 2.94.75 4.32s-.25 2.84-.75 4.33c-.5 1.5-1.18 2.82-2.03 3.95-1.14 1.53-2.62 2.73-4.44 3.61-1.82.87-3.74 1.32-5.74 1.32s-3.95-.44-5.77-1.32c-1.82-.88-3.3-2.08-4.44-3.61-.85-1.14-1.53-2.46-2.03-3.95-.5-1.49-.75-2.94-.75-4.33s.25-2.82.75-4.33c.5-1.5 1.18-2.81 2.03-3.94 1.14-1.53 2.62-2.74 4.44-3.61 1.82-.88 3.75-1.31 5.77-1.31s3.94.43 5.76 1.31Zm-13.83-4.25c-2.65 1.28-4.8 2.98-6.46 5.08-1.15 1.5-2.06 3.24-2.74 5.23-.68 1.99-1.02 3.92-1.02 5.81s.34 3.86 1.01 5.81c.67 1.96 1.6 3.69 2.78 5.23 1.62 2.12 3.76 3.83 6.41 5.11 2.65 1.29 5.34 1.92 8.1 1.92s5.4-.63 8.06-1.92c2.65-1.28 4.8-2.97 6.42-5.08 1.17-1.54 2.1-3.29 2.78-5.25.67-1.95 1.01-3.89 1.01-5.81s-.34-3.84-1.01-5.8c-.68-1.96-1.6-3.7-2.78-5.21-1.62-2.12-3.77-3.83-6.42-5.11-2.66-1.28-5.34-1.92-8.06-1.92s-5.42.64-8.07 1.92Zm50.42 3.55h-12.36v8.48h11.92v4.86h-11.92v16.7h-5.12V76.18h17.49v4.85Zm15.5 0v30.03h-5.12V81.02h-8.04v-4.85h21.37v4.85h-8.21Zm14.68-4.85 9.04 23.31 9.45-25 8.83 25 9.93-23.31h5.66l-15.59 37.18-8.83-24.73-9.45 24.73-14.79-37.18h5.75Zm55.12 21.55 5.43-11.9 5.19 11.9h-10.62Zm16.44 13.34h5.74l-16.64-37.09-17.27 37.09h5.65l3.87-8.48h14.96l3.69 8.48Zm15.24-30.03h1.86c1.34 0 2.46.13 3.34.36.87.24 1.6.63 2.17 1.17 1.09.97 1.64 2.25 1.64 3.84 0 .8-.15 1.57-.46 2.31-.3.74-.74 1.35-1.27 1.87-1.16 1.05-3.02 1.58-5.59 1.58h-1.68V81.03Zm11.46 12.52a9.86 9.86 0 0 0 2.11-3.3c.49-1.25.73-2.57.73-3.94 0-1.46-.3-2.87-.91-4.22-.61-1.36-1.44-2.48-2.51-3.36-1.09-.9-2.42-1.55-3.97-1.95-1.55-.41-3.57-.6-6.05-.6h-5.99v34.88h5.13V96.84h.94l10 14.22h6.45l-10.88-14.8c1.99-.44 3.65-1.34 4.95-2.7Zm30.64-12.52h-14.22v8.48h13.78v4.86h-13.78v11.84h14.22v4.86h-19.34V76.19h19.34v4.85Zm39.74.36-4.33 2.56c-.68-1.17-1.29-1.97-1.84-2.42-.85-.73-1.96-1.1-3.32-1.1-1.46 0-2.67.4-3.64 1.23-.97.82-1.45 1.86-1.45 3.1 0 1.7 1.27 3.07 3.81 4.11l3.47 1.4c2.91 1.19 5 2.61 6.24 4.26 1.28 1.7 1.93 3.66 1.93 5.89 0 1.66-.3 3.22-.91 4.66-.6 1.44-1.49 2.7-2.64 3.77-2.04 1.89-4.54 2.83-7.48 2.83-3.59 0-6.46-1.25-8.61-3.77-.78-.91-1.37-1.85-1.77-2.83-.41-.98-.71-2.22-.93-3.73l5.3-1.15c.15 1.2.31 2.1.49 2.7.18.6.44 1.15.78 1.64.5.71 1.19 1.26 2.05 1.67.85.41 1.75.62 2.71.62 1.65 0 3.01-.55 4.09-1.66 1.08-1.11 1.63-2.49 1.63-4.16 0-1.38-.39-2.52-1.16-3.45-.77-.92-2.04-1.75-3.81-2.5l-3.35-1.43c-2.52-1.07-4.33-2.33-5.43-3.77-1.13-1.5-1.7-3.17-1.7-5 0-2.78 1.02-5.02 3.06-6.71.98-.83 2.12-1.47 3.41-1.92 1.29-.45 2.62-.68 3.98-.68 2.41 0 4.51.68 6.3 2.04.63.49 1.17 1.01 1.63 1.55.44.55.94 1.29 1.49 2.24Zm16.65-.36v30.03h-5.12V81.03h-8.04v-4.85h21.37v4.85h-8.22Zm18.03-4.85v20.99c0 1.73.11 3.08.33 4.03.22.95.61 1.83 1.17 2.61.7.94 1.6 1.67 2.72 2.21 1.12.53 2.32.81 3.59.81s2.47-.27 3.59-.81c1.12-.54 2.03-1.27 2.73-2.21.58-.78.97-1.65 1.19-2.61.21-.95.32-2.3.32-4.03V76.18h5.12v22.41c0 3.73-1.1 6.75-3.3 9.09-1.21 1.28-2.66 2.26-4.33 2.96-1.68.69-3.44 1.04-5.31 1.04s-3.62-.35-5.3-1.04c-1.68-.7-3.12-1.68-4.33-2.96-2.21-2.33-3.31-5.36-3.31-9.09V76.18h5.12Zm34.23 4.85h2.36c2.37 0 4.35.26 5.96.76 1.6.5 3.02 1.32 4.25 2.44 1.22 1.13 2.17 2.51 2.84 4.17.67 1.65 1 3.38 1 5.21s-.33 3.59-1 5.2c-.67 1.6-1.64 2.98-2.9 4.14a11.391 11.391 0 0 1-4.24 2.5c-1.58.5-3.54.75-5.91.75h-2.36V81.03Zm1.92 30.03c2.31 0 4.26-.12 5.85-.36 1.45-.22 2.9-.68 4.35-1.38 1.44-.69 2.76-1.59 3.96-2.66 3.76-3.28 5.64-7.61 5.64-12.96 0-2.68-.47-5.12-1.39-7.36-.92-2.23-2.26-4.14-4.02-5.73-2.43-2.19-5.23-3.54-8.4-4.04-1.8-.27-3.76-.4-5.87-.4h-7.16v34.88h7.05Zm31.72-34.88v34.88h-5.13V76.18h5.13Zm30.82 5.56c1.81.87 3.29 2.08 4.43 3.61.85 1.13 1.53 2.46 2.03 3.95.5 1.5.76 2.94.76 4.32s-.25 2.84-.76 4.33c-.5 1.5-1.18 2.82-2.03 3.95-1.14 1.53-2.62 2.73-4.44 3.61-1.83.87-3.74 1.32-5.75 1.32s-3.95-.44-5.77-1.32c-1.82-.88-3.29-2.08-4.44-3.61-.85-1.14-1.53-2.46-2.03-3.95-.5-1.49-.75-2.94-.75-4.33s.26-2.82.75-4.33c.5-1.5 1.18-2.81 2.03-3.94 1.14-1.53 2.62-2.74 4.44-3.61 1.83-.88 3.75-1.31 5.77-1.31s3.94.43 5.76 1.31Zm-13.83-4.25c-2.64 1.28-4.79 2.98-6.45 5.08-1.14 1.5-2.06 3.24-2.74 5.23-.69 1.99-1.02 3.92-1.02 5.81s.34 3.86 1.01 5.81a18.68 18.68 0 0 0 2.78 5.23c1.63 2.12 3.76 3.83 6.41 5.11 2.64 1.29 5.34 1.92 8.09 1.92s5.4-.63 8.06-1.92c2.65-1.28 4.8-2.97 6.42-5.08 1.18-1.54 2.1-3.29 2.79-5.25.67-1.95 1.01-3.89 1.01-5.81s-.34-3.84-1.01-5.8c-.68-1.96-1.6-3.7-2.79-5.21-1.62-2.12-3.76-3.83-6.42-5.11-2.65-1.28-5.34-1.92-8.06-1.92s-5.42.64-8.07 1.92ZM53.85 109.88h5.58V1.99h-5.58v107.89ZM43.52 30.95l2.85 9-.98-10.85-3-8.22-.67 4.81h-.45L24.48 8.31l8.55 15.2 10.49 7.44ZM4.31 17.61 20.8 30.17l4.05 2.33 2.85 8.53 7.94 4.81-2.25-10.39-6.75-8.22-4.35-5.89h.75l8.54 1.86L20.8 6.45 5.06 3.04l14.39 16.44v1.09L4.31 17.62ZM16.6 57.78h11.84l6.15-9.3-9-4.19-9 13.49Zm9.59 2.64h-1.35l-11.54.62L2.51 72.99l14.69-3.72 8.99-8.84Zm-21.2 49.01.75-.62 17.54-21.25-7.43 8.22-10.86 13.65Zm12.96-18.15 15.89-17.83-7.19 4.81-8.69 13.03Zm19.79-30.86-9 14.11 8.25-5.59 5.85-8.99h-2.25l-2.85.46Zm2.55-4.5 4.35.77 3.6-11.16-3.6-5.27-4.35 15.66Zm39.63-32.41 8.58-15.2-16.85 17.37h-.45l-.67-4.81-3.01 8.22-.99 10.85 2.86-9 10.53-7.44Zm13.63-2.95v-1.09L108 3.03 92.2 6.44 81.37 23.19l8.58-1.86h.75l-4.36 5.89-6.77 8.22-2.26 10.39 7.97-4.81 2.86-8.53 4.06-2.33 16.55-12.56-15.2 2.95Zm-6.17 23.73-9.03 4.19 6.17 9.3h11.89l-9.03-13.49Zm8.43 24.97 14.75 3.72-10.83-11.95-11.59-.62h-1.35l9.03 8.84Zm1.35 26.52-7.46-8.22 17.61 21.25.75.62-10.9-13.65ZM86.33 78.26l-7.22-4.81 15.95 17.83-8.73-13.03Zm-13.99-18.3h-2.26l5.87 8.99 8.28 5.59-9.03-14.11-2.86-.46Zm-4.06-19.7-3.61 5.27 3.61 11.16 4.36-.77-4.36-15.66ZM111.51 0H0v113.28h113.28V0h-1.78Zm-1.77 3.55v106.18H3.55V3.55h106.18Z"></path></svg>